<?xml version="1.0" encoding="UTF-8" standalone="no"?>
<svg
   xmlns:dc="http://purl.org/dc/elements/1.1/"
   xmlns:cc="http://creativecommons.org/ns#"
   xmlns:rdf="http://www.w3.org/1999/02/22-rdf-syntax-ns#"
   xmlns:svg="http://www.w3.org/2000/svg"
   xmlns="http://www.w3.org/2000/svg"
   xmlns:sodipodi="http://sodipodi.sourceforge.net/DTD/sodipodi-0.dtd"
   xmlns:inkscape="http://www.inkscape.org/namespaces/inkscape"
   version="1.1"
   id="Layer_1"
   x="0px"
   y="0px"
   viewBox="0 0 288 560"
   style="enable-background:new 0 0 288 560;"
   xml:space="preserve"
   sodipodi:docname="altaz2.svg"
   inkscape:version="1.0.2-2 (e86c870879, 2021-01-15)"><metadata
   id="metadata19"><rdf:RDF><cc:Work
       rdf:about=""><dc:format>image/svg+xml</dc:format><dc:type
         rdf:resource="http://purl.org/dc/dcmitype/StillImage" /><dc:title></dc:title></cc:Work></rdf:RDF></metadata><defs
   id="defs17" /><sodipodi:namedview
   pagecolor="#ffffff"
   bordercolor="#666666"
   borderopacity="1"
   objecttolerance="10"
   gridtolerance="10"
   guidetolerance="10"
   inkscape:pageopacity="0"
   inkscape:pageshadow="2"
   inkscape:window-width="1202"
   inkscape:window-height="888"
   id="namedview15"
   showgrid="false"
   inkscape:zoom="4.4275684"
   inkscape:cx="137.5"
   inkscape:cy="103.14"
   inkscape:window-x="3720"
   inkscape:window-y="428"
   inkscape:window-maximized="0"
   inkscape:current-layer="Layer_1" />
<style
   type="text/css"
   id="style2">
	.st0{fill:none;stroke:#000000;stroke-width:4;stroke-miterlimit:10;}
</style>
<path
   class="st0"
   d="M169.9,89.09c21.08,2.71,35.39,7.99,35.39,14.05c0,8.83-30.35,15.99-67.79,15.99s-67.79-7.16-67.79-15.99  c0-6.4,15.94-11.92,38.96-14.48"
   id="path4"
   style="stroke-width:7.5;stroke-miterlimit:10;stroke-dasharray:none" />
<polygon
   points="116.48,87.92 101.21,82.02 102.48,96.42 "
   id="polygon10"
   transform="matrix(1.1922822,0,0,1.5212286,-23.752173,-45.461458)" />
<path
   class="st0"
   d="M151.66,134.62c-2.67,21.59-8.01,36.31-14.17,36.31c-8.83,0-15.99-30.35-15.99-67.79s7.16-67.79,15.99-67.79  c6.72,0,12.48,17.59,14.84,42.5"
   id="path8"
   style="stroke-width:7.5;stroke-miterlimit:10;stroke-dasharray:none" />


<polygon
   points="116.48,87.92 101.21,82.02 102.48,96.42 "
   id="polygon10-9"
   transform="matrix(-0.05373074,1.1910709,-1.5196831,-0.06855486,292.30684,-48.540073)" /></svg>
