<?xml version="1.0" encoding="UTF-8" standalone="no"?>
<svg
   version="1.1"
   x="0px"
   y="0px"
   viewBox="0 0 256 256"
   enable-background="new 0 0 256 256"
   xml:space="preserve"
   id="svg3"
   xmlns="http://www.w3.org/2000/svg"
   xmlns:svg="http://www.w3.org/2000/svg"><defs
   id="defs3" />&#10;<g
   id="g4"><g
     id="g3"
     transform="translate(-0.1,-20)"><g
       id="g2"><g
         id="g1"><path
           fill="#000000"
           d="m 31.9,230.3 c 0,-3.3 -0.1,-6.4 -0.5,-9.3 -0.3,-2.9 -0.6,-5.3 -1,-7.3 -0.4,-2 -0.9,-4.2 -1.7,-6.6 -0.8,-2.4 -1.5,-4.2 -2,-5.5 -0.6,-1.3 -1.3,-3.1 -2.4,-5.5 -1.2,-2.8 -2.1,-5 -2.8,-6.6 -0.6,-1.6 -1.5,-3.9 -2.6,-7 -1,-3.1 -1.8,-6 -2.4,-8.6 -0.5,-2.7 -1,-5.9 -1.4,-9.8 -0.4,-3.9 -0.6,-8 -0.6,-12.3 0,-5.3 0.3,-10.1 0.8,-14.5 0.5,-4.4 1.3,-8.5 2.5,-12.4 1.1,-3.8 2.1,-6.8 2.9,-8.9 0.8,-2.1 2,-4.9 3.6,-8.5 1.3,-3 2.3,-5.4 3,-7.1 0.7,-1.7 1.4,-4 2.3,-6.9 0.8,-2.9 1.5,-6 1.8,-9.2 0.4,-3.3 0.5,-6.9 0.5,-11 H 12.4 c -1.6,0 -2.4,-0.6 -2.4,-1.7 0,-0.5 0.2,-1 0.6,-1.7 L 42,27.1 c 0.6,-0.9 1.5,-1.4 2.5,-1.4 1,0 1.8,0.4 2.5,1.3 l 33,42.8 c 0.4,0.6 0.7,1.2 0.7,1.7 0,1 -0.8,1.6 -2.3,1.6 H 56.7 c 0,5.3 -0.3,10.1 -0.8,14.5 -0.5,4.4 -1.3,8.5 -2.5,12.4 -1.1,3.8 -2.1,6.8 -2.9,8.9 -0.8,2.1 -2,4.9 -3.6,8.5 -1.3,3 -2.3,5.3 -3,7 -0.7,1.7 -1.4,4 -2.3,6.9 -0.8,2.9 -1.5,6 -1.8,9.2 -0.4,3.3 -0.5,6.9 -0.5,11 0,4.1 0.2,7.8 0.5,11 0.4,3.3 1,6.4 1.8,9.2 0.8,2.9 1.6,5.2 2.3,6.9 0.7,1.7 1.7,4 3,7 1.5,3.5 2.7,6.4 3.6,8.5 0.8,2.1 1.8,5.1 2.9,8.9 1.1,3.8 2,7.9 2.5,12.4 0.5,4.4 0.8,9.2 0.8,14.5 z m 82.7,0 c 0,-4.1 -0.2,-7.8 -0.5,-11 -0.4,-3.3 -1,-6.3 -1.8,-9.2 -0.8,-2.9 -1.6,-5.2 -2.3,-6.9 -0.6,-1.7 -1.7,-4 -3,-7.1 -1.5,-3.5 -2.7,-6.4 -3.6,-8.5 -0.8,-2.1 -1.8,-5.1 -2.9,-8.9 -1.1,-3.8 -2,-7.9 -2.5,-12.4 -0.5,-4.4 -0.8,-9.2 -0.8,-14.5 0,-5.3 0.3,-10.1 0.8,-14.5 0.5,-4.4 1.3,-8.5 2.5,-12.4 1.1,-3.8 2.1,-6.8 2.9,-8.9 0.8,-2.1 2,-4.9 3.6,-8.5 1.3,-3 2.3,-5.4 3,-7.1 0.7,-1.7 1.4,-4 2.3,-6.9 0.8,-2.9 1.5,-6 1.8,-9.2 0.4,-3.3 0.5,-6.9 0.5,-11 H 95.1 c -1.6,0 -2.4,-0.6 -2.4,-1.7 0,-0.5 0.2,-1 0.6,-1.7 l 31.4,-42.8 c 0.7,-0.9 1.5,-1.4 2.5,-1.4 1,0 1.8,0.4 2.5,1.3 l 33,42.8 c 0.4,0.6 0.7,1.2 0.7,1.7 0,1 -0.8,1.6 -2.3,1.6 h -21.7 c 0,4.3 -0.2,8.4 -0.6,12.3 -0.4,3.9 -0.9,7.2 -1.4,9.8 -0.5,2.7 -1.3,5.6 -2.4,8.6 -1,3.1 -1.9,5.4 -2.5,7 -0.6,1.6 -1.6,3.8 -2.8,6.6 -1.3,3 -2.3,5.3 -3,7 -0.7,1.7 -1.4,4 -2.3,6.9 -0.8,2.9 -1.5,6 -1.8,9.2 -0.4,3.3 -0.5,6.9 -0.5,11 0,2.7 0.1,5.3 0.2,7.7 0.2,2.4 0.5,4.6 0.9,6.7 0.4,2.1 0.8,3.9 1.2,5.5 0.4,1.5 0.9,3.3 1.6,5.2 0.7,1.9 1.3,3.4 1.7,4.5 0.4,1.1 1.1,2.7 2,4.6 1.5,3.5 2.7,6.4 3.6,8.5 0.8,2.1 1.8,5.1 2.9,8.9 1.1,3.8 2,7.9 2.5,12.4 0.5,4.5 0.8,9.2 0.8,14.5 h -24.9 z m 82.7,0 c 0,-4.1 -0.2,-7.8 -0.5,-11 -0.4,-3.3 -1,-6.3 -1.8,-9.2 -0.9,-2.9 -1.6,-5.2 -2.3,-6.9 -0.7,-1.7 -1.7,-4 -3,-7.1 -1.5,-3.5 -2.7,-6.4 -3.6,-8.5 -0.8,-2.1 -1.8,-5.1 -2.9,-8.9 -1.1,-3.8 -2,-7.9 -2.5,-12.4 -0.5,-4.4 -0.8,-9.2 -0.8,-14.5 0,-5.3 0.3,-10.1 0.8,-14.5 0.5,-4.4 1.3,-8.5 2.5,-12.4 1.1,-3.8 2.1,-6.8 2.9,-8.9 0.8,-2.1 2,-4.9 3.6,-8.5 1,-2.4 1.9,-4.3 2.4,-5.5 0.6,-1.3 1.2,-3.1 2,-5.5 0.8,-2.4 1.4,-4.6 1.7,-6.6 0.3,-2 0.7,-4.4 1,-7.3 0.3,-2.9 0.5,-6 0.5,-9.3 h -19.5 c -1.6,0 -2.4,-0.6 -2.4,-1.7 0,-0.5 0.2,-1 0.7,-1.7 l 31.4,-42.8 c 0.7,-0.9 1.5,-1.4 2.5,-1.4 1,0 1.8,0.4 2.5,1.3 l 33,42.8 c 0.4,0.6 0.7,1.2 0.7,1.7 0,1 -0.8,1.6 -2.3,1.6 H 222 c 0,5.3 -0.3,10.1 -0.8,14.5 -0.5,4.4 -1.3,8.5 -2.5,12.4 -1.1,3.8 -2.1,6.8 -2.9,8.9 -0.8,2.1 -2,4.9 -3.6,8.5 -1.3,3 -2.3,5.3 -3,7 -0.7,1.7 -1.4,4 -2.3,6.9 -0.8,2.9 -1.5,6 -1.8,9.2 -0.4,3.3 -0.5,6.9 -0.5,11 0,4.1 0.2,7.8 0.5,11 0.4,3.3 1,6.3 1.8,9.2 0.8,2.9 1.6,5.2 2.3,6.9 0.7,1.7 1.7,4 3,7 1.5,3.5 2.7,6.4 3.6,8.5 0.8,2.1 1.8,5.1 2.9,8.9 1.1,3.8 2,7.9 2.5,12.4 0.5,4.4 0.8,9.2 0.8,14.5 z"
           id="path1" /></g></g></g><path
     id="rect3"
     style="stroke-width:0.893543"
     d="m 10.5,219 h 235 v 19.5 h -235 z" /></g></svg>
